<?xml version="1.0" encoding="UTF-8" standalone="no"?>
<svg
   width="24"
   height="24"
   viewBox="0 0 24 24"
   role="img"
   aria-label="folder icon"
   version="1.1"
   id="svg1"
   sodipodi:docname="PropsFile.svg"
   inkscape:version="1.4.2 (f4327f4, 2025-05-13)"
   xml:space="preserve"
   xmlns:inkscape="http://www.inkscape.org/namespaces/inkscape"
   xmlns:sodipodi="http://sodipodi.sourceforge.net/DTD/sodipodi-0.dtd"
   xmlns="http://www.w3.org/2000/svg"
   xmlns:svg="http://www.w3.org/2000/svg"><defs
     id="defs1" /><sodipodi:namedview
     id="namedview1"
     pagecolor="#505050"
     bordercolor="#eeeeee"
     borderopacity="1"
     inkscape:showpageshadow="0"
     inkscape:pageopacity="0"
     inkscape:pagecheckerboard="0"
     inkscape:deskcolor="#505050"
     inkscape:zoom="22.627417"
     inkscape:cx="1.5026019"
     inkscape:cy="14.473592"
     inkscape:window-width="2560"
     inkscape:window-height="1369"
     inkscape:window-x="-8"
     inkscape:window-y="-8"
     inkscape:window-maximized="1"
     inkscape:current-layer="svg1" /><!-- background (transparent) --><!-- folder body (filled) --><path
     d="m 11.120802,3.1038566 h 6.20729 c 0.662742,0 1.2,0.5372583 1.2,1.1999999 V 19.696144 c 0,0.662742 -0.537258,1.2 -1.2,1.2 H 6.6719081 c -0.6627417,0 -1.2000001,-0.537258 -1.2000001,-1.2 V 7.9141718 Z"
     fill="#4b4d50"
     stroke="#dfe5e9"
     stroke-width="0.8"
     stroke-linejoin="round"
     filter="url(#glow)"
     id="path1"
     sodipodi:nodetypes="csssssscc"
     style="display:none;stroke-width:1;stroke-dasharray:none" /><path
     style="display:none;fill:none;fill-opacity:1;stroke:#dfe5e9;stroke-width:1;stroke-linecap:round;stroke-linejoin:round;stroke-dasharray:none;stroke-opacity:1"
     d="m 5.471908,7.9141718 5.648118,0.010562 7.76e-4,-4.8208776"
     id="path2"
     sodipodi:nodetypes="ccc" /><path
     id="rect5"
     style="fill:#2b3f64;fill-opacity:1;stroke:#5287f1;stroke-linecap:round;stroke-linejoin:round;stroke-opacity:1"
     d="M 17.466797 8.5683594 C 16.193511 9.0082857 15.279297 10.217795 15.279297 11.640625 C 15.279297 13.019522 16.137626 14.19805 17.349609 14.669922 L 17.349609 21.746094 C 17.349609 22.372726 17.853837 22.876953 18.480469 22.876953 C 19.107101 22.876953 19.611328 22.372726 19.611328 21.746094 L 19.611328 14.705078 C 20.873049 14.258837 21.777344 13.055186 21.777344 11.640625 C 21.777344 10.217795 20.86313 9.0082856 19.589844 8.5683594 L 19.589844 11.576172 C 19.589844 12.202804 19.115453 12.707031 18.527344 12.707031 C 17.939234 12.707031 17.466797 12.202804 17.466797 11.576172 L 17.466797 8.5683594 z " /></svg>
